<?xml version="1.0" encoding="UTF-8"?>
<svg version="1.1" xmlns="http://www.w3.org/2000/svg" width="512" height="512">
<path d="M0 0 C3.49996383 2.04164557 5.80555258 4.09089936 7 8 C7.86220689 14.46655166 7.86220689 14.46655166 5.97045898 17.83105469 C1.60766765 23.51935602 -3.30778521 28.50263907 -8.4375 33.5 C-13.55325813 38.50725423 -18.5234982 43.52451763 -23.18383789 48.95898438 C-27.53372219 53.84741464 -32.31104573 58.34562637 -36.97265625 62.93359375 C-41.24392858 67.16373023 -45.32978669 71.45690654 -49.24462891 76.01757812 C-52.47919861 79.67052749 -55.96813313 83.07189733 -59.4375 86.5 C-60.16904297 87.22703125 -60.90058594 87.9540625 -61.65429688 88.703125 C-63.43389824 90.47109499 -65.21580918 92.23666378 -67 94 C-63.57981646 98.63881945 -60.08798276 103.14120836 -56.3125 107.5 C-27.43150664 141.74460641 -9.84983828 185.61834036 -5 230 C-4.88914062 230.94230469 -4.77828125 231.88460937 -4.6640625 232.85546875 C1.24545841 293.30827047 -17.26046584 354.89792981 -55.40673828 402.08398438 C-58.67829951 406.01827989 -62.12879092 409.76837608 -65.640625 413.48828125 C-67.57358613 415.54605279 -69.39719138 417.63236612 -71.1875 419.8125 C-73.75070111 422.83057906 -76.55850513 425.3926169 -79.58203125 427.9453125 C-81.37754568 429.47106466 -83.14111809 431.03457256 -84.88671875 432.6171875 C-114.3494438 459.1129928 -151.93359008 476.81736548 -190.5625 484.9375 C-191.89571289 485.21811279 -191.89571289 485.21811279 -193.25585938 485.50439453 C-208.13314317 488.40140743 -223.05797854 489.38654398 -238.1875 489.3125 C-238.98982056 489.31034485 -239.79214111 489.3081897 -240.61877441 489.30596924 C-278.72057231 489.14270548 -321.60782853 480.55429589 -353.8359375 459.11328125 C-356.79088566 457.59313644 -357.79169309 458.08189568 -361 459 C-363.98577797 460.28900074 -366.87558225 461.75355817 -369.77490234 463.22509766 C-371.08584869 463.88144699 -371.08584869 463.88144699 -372.42327881 464.55105591 C-375.31365609 465.99983896 -378.19972896 467.45699486 -381.0859375 468.9140625 C-383.10522671 469.92777889 -385.12481356 470.9409026 -387.14468384 471.95346069 C-392.47128649 474.6253273 -397.79442937 477.30401206 -403.11669922 479.98449707 C-411.59794651 484.25467099 -420.08417571 488.5149296 -428.57078934 492.77442551 C-431.51564551 494.25375185 -434.4589119 495.73620152 -437.40194702 497.21914673 C-445.40162912 501.24525672 -453.40781245 505.26137819 -461.48681641 509.12646484 C-463.18736679 509.94405777 -463.18736679 509.94405777 -464.92227173 510.77816772 C-469.3490428 512.53555866 -473.34867935 513.1403817 -478 512 C-481.49996383 509.95835443 -483.80555258 507.90910064 -485 504 C-485.64455896 499.1658078 -485.5957912 496.26758757 -482.75 492.25 C-478.80083392 487.48473546 -474.2955063 483.20954159 -469.8828125 478.87890625 C-467.62450935 476.64892265 -465.49434602 474.3570266 -463.4375 471.9375 C-460.17822041 468.10445971 -456.6248468 464.59629183 -453.04663086 461.06616211 C-450.41959998 458.4607863 -447.89999432 455.81537795 -445.5 453 C-442.65877199 449.66702099 -439.61578377 446.57391199 -436.5 443.5 C-432.80920543 439.85873799 -429.31591953 436.12811374 -425.9609375 432.17578125 C-422.82774435 428.69930997 -419.4599893 425.45330844 -416.08618164 422.21118164 C-413.43299855 419.61969052 -411.54090511 417.35887724 -410 414 C-410.65029175 413.37689941 -410.65029175 413.37689941 -411.3137207 412.74121094 C-415.65860039 408.49948604 -419.52049525 404.08576206 -423.1875 399.25 C-423.74211914 398.51974609 -424.29673828 397.78949219 -424.86816406 397.03710938 C-448.56031614 365.34902395 -463.89739585 329.09480781 -470 290 C-470.11859375 289.25024902 -470.2371875 288.50049805 -470.359375 287.72802734 C-479.16568115 229.08484281 -463.47632855 166.61174273 -428.59082031 118.86743164 C-426.11336815 115.53632703 -423.57285603 112.25780938 -421 109 C-420.55575684 108.43716309 -420.11151367 107.87432617 -419.65380859 107.29443359 C-408.95819611 93.89575545 -396.70509852 81.31451425 -383 71 C-382.06994141 70.2879541 -382.06994141 70.2879541 -381.12109375 69.56152344 C-346.47953116 43.15308365 -304.6476382 25.586839 -261 22 C-260.3385498 21.94505371 -259.67709961 21.89010742 -258.99560547 21.83349609 C-210.79103462 17.96388929 -165.61325234 28.87457782 -122.97265625 50.98193359 C-122.32167969 51.31789551 -121.67070312 51.65385742 -121 52 C-120.38198013 52.38280121 -119.76396027 52.76560242 -119.12721252 53.16000366 C-117.05837372 54.21583028 -117.05837372 54.21583028 -115.05235291 53.51055908 C-114.03245018 52.9895462 -114.03245018 52.9895462 -112.99194336 52.45800781 C-112.21270004 52.06969788 -111.43345673 51.68138794 -110.63059998 51.28131104 C-109.79215042 50.84300964 -108.95370087 50.40470825 -108.08984375 49.953125 C-107.20833145 49.5078949 -106.32681915 49.06266479 -105.41859436 48.60394287 C-102.58374878 47.16742845 -99.760819 45.70901607 -96.9375 44.25 C-95.09382485 43.31237338 -93.24943009 42.37616032 -91.40429688 41.44140625 C-82.76510227 37.05203093 -74.17116973 32.57820485 -65.6015625 28.0546875 C-55.59149613 22.77161159 -45.55362031 17.54602929 -35.46264648 12.41894531 C-33.42583499 11.37941695 -31.39300606 10.33205232 -29.36401367 9.27734375 C-26.37583341 7.72546323 -23.37533145 6.20020054 -20.37109375 4.6796875 C-19.02862831 3.97209793 -19.02862831 3.97209793 -17.65904236 3.25021362 C-11.76062618 0.30949523 -6.60936301 -1.04775551 0 0 Z " fill="#F8E009" transform="translate(495,0)"/>
<path d="M0 0 C1.01668762 -0.00012085 2.03337524 -0.0002417 3.08087158 -0.00036621 C18.62938511 0.02595038 33.42629924 0.85152297 48.625 4.375 C50.05974455 4.67910003 51.49463184 4.98252774 52.9296875 5.28515625 C74.52310365 10.07289617 95.45248708 18.41032758 114.625 29.375 C114.625 30.035 114.625 30.695 114.625 31.375 C113.9405632 31.71610809 113.2561264 32.05721619 112.5509491 32.40866089 C106.00713135 35.67042775 99.46435271 38.93426648 92.92264843 42.2002697 C89.5618488 43.87809263 86.20069304 45.55519267 82.83862305 47.23046875 C63.6609624 56.78682161 63.6609624 56.78682161 44.65653992 66.68185425 C32.63999644 73.05076079 20.40939727 79.00934415 8.23144531 85.06152344 C-7.8958217 93.07352917 -7.8958217 93.07352917 -23.875 101.375 C-36.70801277 108.19575046 -49.75513211 114.59413328 -62.76855469 121.06152344 C-76.72502868 128.00145171 -90.65540561 134.97485989 -104.375 142.375 C-105.580354 143.01659058 -105.580354 143.01659058 -106.81005859 143.67114258 C-108.015896 144.32312622 -108.015896 144.32312622 -109.24609375 144.98828125 C-109.97626709 145.38055908 -110.70644043 145.77283691 -111.45874023 146.17700195 C-114.75395925 148.2370911 -116.66462964 150.95425929 -118.375 154.375 C-118.52332685 156.12069287 -118.59628283 157.87325237 -118.625 159.625 C-118.65078125 160.55828125 -118.6765625 161.4915625 -118.703125 162.453125 C-118.05514471 168.22323516 -115.02023689 172.10674498 -110.98828125 176.08984375 C-110.13169922 176.94126953 -109.27511719 177.79269531 -108.39257812 178.66992188 C-107.49990234 179.54197266 -106.60722656 180.41402344 -105.6875 181.3125 C-104.81416016 182.18068359 -103.94082031 183.04886719 -103.04101562 183.94335938 C-98.59363371 188.33759857 -94.0632636 192.56240242 -89.32495117 196.63891602 C-84.91997774 200.56075977 -80.86117691 204.85264501 -76.73046875 209.05859375 C-73.37171876 212.45418561 -69.99647576 215.75917769 -66.375 218.875 C-61.20939256 223.31935252 -56.50207707 228.20007088 -51.73046875 233.05859375 C-47.12027159 237.7193598 -42.37213468 242.13113461 -37.375 246.375 C-38.73760247 249.39616985 -40.294785 251.58275262 -42.5703125 253.984375 C-43.20001953 254.65275391 -43.82972656 255.32113281 -44.47851562 256.00976562 C-45.14560547 256.70779297 -45.81269531 257.40582031 -46.5 258.125 C-47.17998047 258.84365234 -47.85996094 259.56230469 -48.56054688 260.30273438 C-52.53937264 264.49477951 -56.57714673 268.61651039 -60.69921875 272.66796875 C-62.44518012 274.44648884 -64.06726405 276.29406268 -65.6875 278.1875 C-68.5975047 281.57695627 -71.69660325 284.73951107 -74.875 287.875 C-77.96992611 290.92836953 -80.99434337 293.99823755 -83.8125 297.3125 C-87.31210497 301.41926535 -91.13482009 305.16224806 -94.97021484 308.95068359 C-98.32544557 312.28066329 -101.47217875 315.71422489 -104.53515625 319.31640625 C-107.33266867 322.44653162 -110.34124506 325.36185658 -113.32836914 328.30883789 C-115.95540002 330.9142137 -118.47500568 333.55962205 -120.875 336.375 C-124.1580078 340.22622069 -127.72904512 343.7578886 -131.328125 347.30859375 C-133.95523558 349.91405232 -136.47493084 352.55953425 -138.875 355.375 C-142.15287886 359.22020405 -145.71620385 362.74882957 -149.31274414 366.29101562 C-152.67701899 369.62324976 -155.82015502 373.07349915 -158.83984375 376.71875 C-160.5306235 378.54289914 -162.34899666 379.93973198 -164.375 381.375 C-169.30462091 376.66911796 -173.64903085 371.75179247 -177.75 366.3125 C-178.31307861 365.56863037 -178.87615723 364.82476074 -179.45629883 364.05834961 C-184.46435069 357.37308967 -189.08466936 350.5394725 -193.375 343.375 C-193.76751953 342.73079102 -194.16003906 342.08658203 -194.56445312 341.42285156 C-209.70026679 316.36840248 -219.02061893 288.21736171 -223.375 259.375 C-223.55305176 258.2511792 -223.73110352 257.1273584 -223.91455078 255.96948242 C-225.34021814 246.33571681 -225.77587589 236.91304391 -225.75 227.1875 C-225.74945618 226.41008453 -225.74891235 225.63266907 -225.74835205 224.83169556 C-225.60503006 179.84177571 -212.1609953 133.91946199 -185.375 97.375 C-184.9531543 96.78235352 -184.53130859 96.18970703 -184.09667969 95.57910156 C-176.61461805 85.07046954 -168.36640931 75.61147592 -159.375 66.375 C-158.1375 65.07755859 -158.1375 65.07755859 -156.875 63.75390625 C-151.42656257 58.14006982 -145.57656167 53.13649866 -139.375 48.375 C-138.42971436 47.64772705 -138.42971436 47.64772705 -137.46533203 46.90576172 C-110.72263525 26.52946603 -80.77143324 12.14663193 -48 4.5625 C-47.15775879 4.3675293 -46.31551758 4.17255859 -45.44775391 3.97167969 C-30.277045 0.65628483 -15.46664067 -0.02822551 0 0 Z " fill="#64C4EE" transform="translate(255.375,28.625)"/>
<path d="M0 0 C1.48925781 1.45556641 1.48925781 1.45556641 3.203125 3.4765625 C3.82638672 4.21036133 4.44964844 4.94416016 5.09179688 5.70019531 C15.17568152 17.85349539 24.18617771 30.26661537 32 44 C32.59288818 45.02528809 32.59288818 45.02528809 33.19775391 46.07128906 C43.41843824 63.87506178 50.44233297 83.01781255 55 103 C55.29519531 104.26457031 55.59039062 105.52914062 55.89453125 106.83203125 C68.82183409 164.5909656 58.12421216 226.38280182 26.42675781 276.48681641 C23.12995841 281.46063001 19.62870161 286.26435031 16 291 C15.26910156 291.96164062 14.53820312 292.92328125 13.78515625 293.9140625 C0.86203235 310.44542495 -14.07287555 325.59235501 -31 338 C-31.84691406 338.63035156 -32.69382812 339.26070313 -33.56640625 339.91015625 C-45.58778903 348.60436883 -58.60344758 355.68315101 -72 362 C-73.10472656 362.52335937 -74.20945312 363.04671875 -75.34765625 363.5859375 C-105.20722891 377.03876046 -136.67068997 382.22387781 -169.1875 382.25 C-170.33694595 382.25101212 -170.33694595 382.25101212 -171.50961304 382.25204468 C-183.59428181 382.23522833 -195.1533903 381.53243631 -207 379 C-207.87865723 378.82307617 -208.75731445 378.64615234 -209.66259766 378.46386719 C-233.82552243 373.57470645 -256.66010499 365.4809019 -278 353 C-274.24662101 349.87290689 -270.01745054 347.87351191 -265.66796875 345.71875 C-264.84033524 345.30516235 -264.01270172 344.89157471 -263.1599884 344.4654541 C-261.39821245 343.58607664 -259.63546476 342.70864369 -257.87182617 341.83300781 C-255.26062996 340.53631556 -252.65251456 339.23360817 -250.04492188 337.9296875 C-242.23307891 334.03223351 -234.40467239 330.17763507 -226.51374817 326.44262695 C-214.5107017 320.7585918 -202.62450908 314.85301925 -190.75 308.90625 C-189.3794493 308.2199073 -189.3794493 308.2199073 -187.98121071 307.5196991 C-181.31938844 304.18262666 -174.65950791 300.84168805 -168 297.5 C-124.29448894 275.56892248 -124.29448894 275.56892248 -107.37158203 267.5546875 C-97.37100483 262.8147337 -87.44183804 257.92758959 -77.52319336 253.01904297 C-75.10515104 251.82607404 -72.68531586 250.63843885 -70.26049805 249.45947266 C-66.69459326 247.72544727 -63.14197875 245.96519742 -59.58984375 244.203125 C-58.51177963 243.68316956 -57.43371552 243.16321411 -56.32298279 242.62750244 C-50.4524954 239.6846075 -45.4101742 236.79459241 -42 231 C-40.34276818 225.55011131 -39.96661976 220.109818 -42.5 214.9375 C-47.47784838 209.08852815 -52.98581463 203.91790411 -58.80078125 198.9140625 C-61.40391882 196.64845431 -63.95158724 194.32696448 -66.5 192 C-70.28662998 188.54671847 -74.1047632 185.13900949 -77.97265625 181.77734375 C-80.33489173 179.70640513 -82.66795853 177.60487152 -85 175.5 C-87.98062721 172.81016569 -90.97245233 170.13689636 -94 167.5 C-99.58979989 162.62856797 -105.07534898 157.6410485 -110.578125 152.671875 C-115.05221726 148.63695744 -119.54299667 144.62900937 -124.11328125 140.703125 C-126.4957319 138.55250703 -128.74453304 136.28264126 -131 134 C-123.04833164 125.35256066 -114.9824051 116.86127482 -106.59570312 108.6328125 C-103.46714356 105.54596706 -100.45557947 102.42345469 -97.58984375 99.08984375 C-92.91543197 93.6680524 -87.77303098 88.72650362 -82.671875 83.7109375 C-79.16907073 80.24387613 -75.74236279 76.77195398 -72.53125 73.03125 C-67.68703971 67.39455369 -62.32068928 62.27612862 -57.02734375 57.06640625 C-52.75511487 52.83532243 -48.67158655 48.54004217 -44.75585938 43.97851562 C-40.83339422 39.55865222 -36.53051398 35.49418994 -32.31640625 31.35546875 C-28.30226737 27.38488291 -24.49582262 23.32702767 -20.81298828 19.04882812 C-17.42334958 15.21825339 -13.80163526 11.61726981 -10.1875 8 C-9.42501953 7.22527344 -8.66253906 6.45054688 -7.87695312 5.65234375 C-7.14798828 4.92144531 -6.41902344 4.19054687 -5.66796875 3.4375 C-5.01078857 2.77621094 -4.3536084 2.11492187 -3.67651367 1.43359375 C-2 0 -2 0 0 0 Z " fill="#64C4EE" transform="translate(423,100)"/>
<path d="M0 0 C3.49996383 2.04164557 5.80555258 4.09089936 7 8 C7.86220689 14.46655166 7.86220689 14.46655166 5.97045898 17.83105469 C1.60766765 23.51935602 -3.30778521 28.50263907 -8.4375 33.5 C-13.55325813 38.50725423 -18.5234982 43.52451763 -23.18383789 48.95898438 C-27.53372219 53.84741464 -32.31104573 58.34562637 -36.97265625 62.93359375 C-41.24392858 67.16373023 -45.32978669 71.45690654 -49.24462891 76.01757812 C-52.47919861 79.67052749 -55.96813313 83.07189733 -59.4375 86.5 C-60.16904297 87.22703125 -60.90058594 87.9540625 -61.65429688 88.703125 C-63.43389824 90.47109499 -65.21580918 92.23666378 -67 94 C-63.57981646 98.63881945 -60.08798276 103.14120836 -56.3125 107.5 C-27.43150664 141.74460641 -9.84983828 185.61834036 -5 230 C-4.88914062 230.94230469 -4.77828125 231.88460937 -4.6640625 232.85546875 C1.24545841 293.30827047 -17.26046584 354.89792981 -55.40673828 402.08398438 C-58.67829951 406.01827989 -62.12879092 409.76837608 -65.640625 413.48828125 C-67.57358613 415.54605279 -69.39719138 417.63236612 -71.1875 419.8125 C-73.75070111 422.83057906 -76.55850513 425.3926169 -79.58203125 427.9453125 C-81.37754568 429.47106466 -83.14111809 431.03457256 -84.88671875 432.6171875 C-114.3494438 459.1129928 -151.93359008 476.81736548 -190.5625 484.9375 C-191.89571289 485.21811279 -191.89571289 485.21811279 -193.25585938 485.50439453 C-208.13314317 488.40140743 -223.05797854 489.38654398 -238.1875 489.3125 C-238.98982056 489.31034485 -239.79214111 489.3081897 -240.61877441 489.30596924 C-278.72057231 489.14270548 -321.60782853 480.55429589 -353.8359375 459.11328125 C-356.79088566 457.59313644 -357.79169309 458.08189568 -361 459 C-363.98577797 460.28900074 -366.87558225 461.75355817 -369.77490234 463.22509766 C-371.08584869 463.88144699 -371.08584869 463.88144699 -372.42327881 464.55105591 C-375.31365609 465.99983896 -378.19972896 467.45699486 -381.0859375 468.9140625 C-383.10522671 469.92777889 -385.12481356 470.9409026 -387.14468384 471.95346069 C-392.47128649 474.6253273 -397.79442937 477.30401206 -403.11669922 479.98449707 C-411.59794651 484.25467099 -420.08417571 488.5149296 -428.57078934 492.77442551 C-431.51564551 494.25375185 -434.4589119 495.73620152 -437.40194702 497.21914673 C-445.40162912 501.24525672 -453.40781245 505.26137819 -461.48681641 509.12646484 C-463.18736679 509.94405777 -463.18736679 509.94405777 -464.92227173 510.77816772 C-469.3490428 512.53555866 -473.34867935 513.1403817 -478 512 C-481.49996383 509.95835443 -483.80555258 507.90910064 -485 504 C-485.64455896 499.1658078 -485.5957912 496.26758757 -482.75 492.25 C-478.80083392 487.48473546 -474.2955063 483.20954159 -469.8828125 478.87890625 C-467.62450935 476.64892265 -465.49434602 474.3570266 -463.4375 471.9375 C-460.17822041 468.10445971 -456.6248468 464.59629183 -453.04663086 461.06616211 C-450.41959998 458.4607863 -447.89999432 455.81537795 -445.5 453 C-442.65877199 449.66702099 -439.61578377 446.57391199 -436.5 443.5 C-432.80920543 439.85873799 -429.31591953 436.12811374 -425.9609375 432.17578125 C-422.82774435 428.69930997 -419.4599893 425.45330844 -416.08618164 422.21118164 C-413.43299855 419.61969052 -411.54090511 417.35887724 -410 414 C-410.65029175 413.37689941 -410.65029175 413.37689941 -411.3137207 412.74121094 C-415.65860039 408.49948604 -419.52049525 404.08576206 -423.1875 399.25 C-423.74211914 398.51974609 -424.29673828 397.78949219 -424.86816406 397.03710938 C-448.56031614 365.34902395 -463.89739585 329.09480781 -470 290 C-470.11859375 289.25024902 -470.2371875 288.50049805 -470.359375 287.72802734 C-479.16568115 229.08484281 -463.47632855 166.61174273 -428.59082031 118.86743164 C-426.11336815 115.53632703 -423.57285603 112.25780938 -421 109 C-420.55575684 108.43716309 -420.11151367 107.87432617 -419.65380859 107.29443359 C-408.95819611 93.89575545 -396.70509852 81.31451425 -383 71 C-382.06994141 70.2879541 -382.06994141 70.2879541 -381.12109375 69.56152344 C-346.47953116 43.15308365 -304.6476382 25.586839 -261 22 C-260.3385498 21.94505371 -259.67709961 21.89010742 -258.99560547 21.83349609 C-210.79103462 17.96388929 -165.61325234 28.87457782 -122.97265625 50.98193359 C-122.32167969 51.31789551 -121.67070312 51.65385742 -121 52 C-120.38198013 52.38280121 -119.76396027 52.76560242 -119.12721252 53.16000366 C-117.05837372 54.21583028 -117.05837372 54.21583028 -115.05235291 53.51055908 C-114.03245018 52.9895462 -114.03245018 52.9895462 -112.99194336 52.45800781 C-112.21270004 52.06969788 -111.43345673 51.68138794 -110.63059998 51.28131104 C-109.79215042 50.84300964 -108.95370087 50.40470825 -108.08984375 49.953125 C-107.20833145 49.5078949 -106.32681915 49.06266479 -105.41859436 48.60394287 C-102.58374878 47.16742845 -99.760819 45.70901607 -96.9375 44.25 C-95.09382485 43.31237338 -93.24943009 42.37616032 -91.40429688 41.44140625 C-82.76510227 37.05203093 -74.17116973 32.57820485 -65.6015625 28.0546875 C-55.59149613 22.77161159 -45.55362031 17.54602929 -35.46264648 12.41894531 C-33.42583499 11.37941695 -31.39300606 10.33205232 -29.36401367 9.27734375 C-26.37583341 7.72546323 -23.37533145 6.20020054 -20.37109375 4.6796875 C-19.02862831 3.97209793 -19.02862831 3.97209793 -17.65904236 3.25021362 C-11.76062618 0.30949523 -6.60936301 -1.04775551 0 0 Z M-14.07104492 9.68701172 C-15.25055222 10.27537811 -16.43005951 10.86374451 -17.64530945 11.46994019 C-18.92384495 12.12289748 -20.20222726 12.77615482 -21.48046875 13.4296875 C-22.81593011 14.10175647 -24.15190316 14.77280951 -25.48835754 15.44290161 C-29.01283492 17.21375046 -32.52972368 18.99919365 -36.04534912 20.78753662 C-39.55342883 22.56841408 -43.06917863 24.33400913 -46.58398438 26.1015625 C-58.43923375 32.07146255 -70.26148631 38.09535133 -81.98344421 44.32382202 C-94.37586088 50.87924011 -106.98610056 57.01916671 -119.5390625 63.25927734 C-131.35579222 69.13652831 -143.15300159 75.02858283 -154.80639648 81.22424316 C-166.87889596 87.61742345 -179.16112199 93.6072684 -191.39355469 99.68652344 C-207.5208217 107.69852917 -207.5208217 107.69852917 -223.5 116 C-236.33301277 122.82075046 -249.38013211 129.21913328 -262.39355469 135.68652344 C-273.97890165 141.44739663 -285.53682874 147.23515839 -296.95985413 153.31230164 C-303.03148822 156.52707335 -309.17238194 159.58697436 -315.33984375 162.61328125 C-316.29259186 163.08216766 -317.24533997 163.55105408 -318.22695923 164.03414917 C-322.129054 165.95384143 -326.03155033 167.87236638 -329.94311523 169.77270508 C-332.85173264 171.18774021 -335.75250113 172.6178683 -338.65234375 174.05078125 C-339.53454086 174.47482742 -340.41673798 174.8988736 -341.32566833 175.33576965 C-346.69349371 178.00762407 -350.24145676 180.48291352 -353 186 C-353.59200103 191.20960909 -352.1271154 194.01811231 -349 198 C-346.83777753 200.40479626 -344.55977229 202.67501831 -342.25 204.9375 C-341.66734375 205.51951172 -341.0846875 206.10152344 -340.484375 206.70117188 C-337.43788668 209.71759616 -334.32715352 212.61282584 -331.078125 215.41015625 C-325.89559394 219.89446085 -321.1544993 224.79714916 -316.35546875 229.68359375 C-312.36461298 233.7182249 -308.28347991 237.53971738 -303.98242188 241.24023438 C-299.78759393 244.96391909 -295.92583073 249.03655539 -292 253.0390625 C-287.50823379 257.5834666 -282.84733967 261.83909124 -278 266 C-276.46065749 267.35424653 -274.93479217 268.72440185 -273.4375 270.125 C-272.75558594 270.74632812 -272.07367188 271.36765625 -271.37109375 272.0078125 C-270 274 -270 274 -270.20703125 276.37915039 C-271.106997 279.35363695 -272.16825686 280.70436427 -274.31640625 282.92578125 C-274.99896484 283.64056641 -275.68152344 284.35535156 -276.38476562 285.09179688 C-277.10341797 285.82462891 -277.82207031 286.55746094 -278.5625 287.3125 C-279.25408203 288.03373047 -279.94566406 288.75496094 -280.65820312 289.49804688 C-284.78604974 293.7874681 -288.98674419 298.00105976 -293.22314453 302.18310547 C-294.99996738 303.99996665 -296.66488599 305.87834443 -298.3125 307.8125 C-301.22250451 311.20195605 -304.32159942 314.36451453 -307.5 317.5 C-310.61579869 320.57389855 -313.65877278 323.66702191 -316.5 327 C-319.7830078 330.85122069 -323.35404512 334.3828886 -326.953125 337.93359375 C-329.58023558 340.53905232 -332.09993084 343.18453425 -334.5 346 C-337.7830078 349.85122069 -341.35404512 353.3828886 -344.953125 356.93359375 C-347.58023558 359.53905232 -350.09993084 362.18453425 -352.5 365 C-355.7830078 368.85122069 -359.35404512 372.3828886 -362.953125 375.93359375 C-365.58023558 378.53905232 -368.09993084 381.18453425 -370.5 384 C-373.34122801 387.33297901 -376.38421623 390.42608801 -379.5 393.5 C-382.59491502 396.55337951 -385.61934277 399.62323685 -388.4375 402.9375 C-391.93710497 407.04426535 -395.75982009 410.78724806 -399.59521484 414.57568359 C-402.95044557 417.90566329 -406.09717875 421.33922489 -409.16015625 424.94140625 C-411.95766867 428.07153162 -414.96624506 430.98685658 -417.95336914 433.93383789 C-420.58040002 436.5392137 -423.10000568 439.18462205 -425.5 442 C-428.7830078 445.85122069 -432.35404512 449.3828886 -435.953125 452.93359375 C-438.58023558 455.53905232 -441.09993084 458.18453425 -443.5 461 C-446.7830078 464.85122069 -450.35404512 468.3828886 -453.953125 471.93359375 C-457.17330042 475.12722926 -460.16864488 478.43541479 -463.10546875 481.88671875 C-466.44894234 485.6162429 -470.06480946 489.08131021 -473.64453125 492.58203125 C-476.10724266 494.9623308 -476.10724266 494.9623308 -478 498 C-477.81767408 501.82748905 -477.81767408 501.82748905 -476 505 C-470.26865631 505.69012993 -466.41802511 503.64002267 -461.453125 501.12890625 C-460.17009491 500.49767097 -460.17009491 500.49767097 -458.86114502 499.85368347 C-455.98494907 498.43472162 -453.11763843 496.99866801 -450.25 495.5625 C-448.2029394 494.54821374 -446.15540008 493.53489315 -444.10742188 492.52246094 C-437.71385534 489.35597636 -431.33120404 486.16782967 -424.95046997 482.97559357 C-422.24059474 481.62015776 -419.53013324 480.26589627 -416.8196907 478.91159534 C-413.21815457 477.11199838 -409.61687222 475.31189379 -406.015625 473.51171875 C-405.29153694 473.14976976 -404.56744888 472.78782078 -403.82141876 472.41490364 C-396.60416911 468.80688636 -389.38774206 465.19728215 -382.17735672 461.57556248 C-357.89116963 449.37717149 -357.89116963 449.37717149 -346.21875 443.859375 C-335.31702156 438.69903717 -324.53398588 433.30721924 -313.75 427.90625 C-312.83536484 427.44821236 -311.92072968 426.99017471 -310.9783783 426.51825714 C-304.31750078 423.18166409 -297.65856103 419.84121292 -291 416.5 C-283.41793608 412.69538069 -275.83511938 408.89227478 -268.25 405.09375 C-267.33291889 404.6344491 -266.41583778 404.1751482 -265.47096634 403.70192909 C-255.00190547 398.46175572 -244.51357292 393.2811122 -233.9258728 388.28398132 C-224.20608113 383.67072251 -214.59603951 378.83735666 -204.9765625 374.01953125 C-203.62482563 373.34258272 -203.62482563 373.34258272 -202.24578094 372.65195847 C-195.70410035 369.37496914 -189.16436898 366.09409923 -182.625 362.8125 C-176.05124775 359.51369558 -169.47678415 356.2163239 -162.90061569 352.92233849 C-160.31396658 351.62584052 -157.72855969 350.3268908 -155.14321899 349.02778625 C-153.52087217 348.2146953 -151.89842759 347.40179938 -150.27587891 346.58911133 C-149.49937296 346.19861508 -148.72286701 345.80811884 -147.92283058 345.40578938 C-144.04811744 343.46959235 -140.15750253 341.60175048 -136.20135498 339.83724976 C-135.42909262 339.48920886 -134.65683025 339.14116796 -133.861166 338.78258038 C-132.41511801 338.13583608 -130.96330707 337.50174577 -129.50475502 336.88371754 C-124.67543017 334.7190796 -122.08030467 332.32399181 -119 328 C-117.97528963 324.82775833 -118.15891746 322.21590384 -119 319 C-120.87961677 315.83854623 -123.31864565 313.49579349 -126 311 C-127.30324219 309.77410156 -127.30324219 309.77410156 -128.6328125 308.5234375 C-133.3354366 304.18759188 -138.14504899 299.97311693 -142.97265625 295.77734375 C-145.33489173 293.70640513 -147.66795853 291.60487152 -150 289.5 C-152.98062721 286.81016569 -155.97245233 284.13689636 -159 281.5 C-164.58979989 276.62856797 -170.07534898 271.6410485 -175.578125 266.671875 C-180.00121401 262.68295423 -184.44615005 258.72432093 -188.9375 254.8125 C-192.16399193 251.977098 -195.34622 249.09315125 -198.52734375 246.20703125 C-201.45493631 243.59393521 -204.4620061 241.08428074 -207.50390625 238.60546875 C-209.30151454 236.67644262 -209.89963795 235.64453996 -210 233 C-208.76171875 231.0546875 -208.76171875 231.0546875 -206.6875 228.875 C-205.45966797 227.575625 -205.45966797 227.575625 -204.20703125 226.25 C-199.37290277 221.31896654 -194.48205257 216.44161395 -189.5612793 211.59716797 C-186.09563577 208.17239376 -182.71367468 204.73694216 -179.5390625 201.0390625 C-174.69163686 195.40022043 -169.32335416 190.2787514 -164.02734375 185.06640625 C-160.39660828 181.47063773 -156.82942643 177.87853044 -153.5 174 C-148.66867614 168.37187243 -143.31002622 163.26563402 -138.02734375 158.06640625 C-134.39660828 154.47063773 -130.82942643 150.87853044 -127.5 147 C-122.66867614 141.37187243 -117.31002622 136.26563402 -112.02734375 131.06640625 C-108.39660828 127.47063773 -104.82942643 123.87853044 -101.5 120 C-96.66867614 114.37187243 -91.31002622 109.26563402 -86.02734375 104.06640625 C-81.7652762 99.8453859 -77.69341441 95.56031609 -73.78710938 91.00976562 C-69.64943836 86.3565815 -65.10991768 82.07451638 -60.671875 77.7109375 C-57.16907073 74.24387613 -53.74236279 70.77195398 -50.53125 67.03125 C-45.68703971 61.39455369 -40.32068928 56.27612862 -35.02734375 51.06640625 C-31.40310929 47.47707614 -27.84161844 43.89231026 -24.51953125 40.01953125 C-20.3378133 35.14714282 -15.76010806 30.68981431 -11.1875 26.1875 C-9.49117754 24.51666699 -7.79706127 22.8435903 -6.10546875 21.16796875 C-5.36449951 20.43860107 -4.62353027 19.7092334 -3.86010742 18.95776367 C-1.83574963 16.93885085 -1.83574963 16.93885085 0 14 C-0.18232592 10.17251095 -0.18232592 10.17251095 -2 7 C-6.80573594 6.58725283 -9.80139016 7.530837 -14.07104492 9.68701172 Z M-281 32 C-282.72379883 32.33656616 -282.72379883 32.33656616 -284.48242188 32.67993164 C-337.51920961 43.69032205 -386.71191915 74.31468103 -419 118 C-419.4223291 118.56154785 -419.8446582 119.1230957 -420.27978516 119.70166016 C-455.68023294 166.85239104 -471.09000466 226.08286054 -463.81738281 284.5324707 C-462.0937878 296.58346696 -459.6688635 308.38983032 -456 320 C-455.74879395 320.79776855 -455.49758789 321.59553711 -455.23876953 322.41748047 C-444.6728819 355.34448729 -427.95434525 384.96419447 -404 410 C-398.65954478 405.75191062 -394.13477977 400.99671139 -389.55688477 395.96337891 C-386.51059272 392.61927167 -383.41215578 389.36254569 -380.1875 386.1875 C-377.54612409 383.58392554 -375.03426635 380.94435424 -372.625 378.125 C-369.737852 374.75442257 -366.65753002 371.61496136 -363.5 368.5 C-360.38420505 365.42609809 -357.34122742 362.33297832 -354.5 359 C-351.65877199 355.66702099 -348.61578377 352.57391199 -345.5 349.5 C-342.40508498 346.44662049 -339.38065723 343.37676315 -336.5625 340.0625 C-333.06289503 335.95573465 -329.24017991 332.21275194 -325.40478516 328.42431641 C-322.04955443 325.09433671 -318.90282125 321.66077511 -315.83984375 318.05859375 C-313.04233133 314.92846838 -310.03375494 312.01314342 -307.04663086 309.06616211 C-304.41959998 306.4607863 -301.89999432 303.81537795 -299.5 301 C-296.65869716 297.6669332 -293.61481622 294.57497006 -290.5 291.5 C-287.21705316 288.23516597 -283.94405427 284.9735439 -280.8125 281.5625 C-280.26207031 280.96566406 -279.71164062 280.36882812 -279.14453125 279.75390625 C-277.63566977 277.79074375 -277.63566977 277.79074375 -278 274 C-279.23432572 272.30598173 -279.23432572 272.30598173 -281.0078125 270.8203125 C-281.65814453 270.22798828 -282.30847656 269.63566406 -282.97851562 269.02539062 C-283.68685547 268.39826172 -284.39519531 267.77113281 -285.125 267.125 C-286.5983017 265.7859939 -288.06961632 264.44479858 -289.5390625 263.1015625 C-290.28575195 262.42125977 -291.03244141 261.74095703 -291.80175781 261.04003906 C-295.69783957 257.42435057 -299.41521617 253.63351417 -303.12939453 249.83251953 C-305.94957355 246.96901979 -308.82802741 244.24736993 -311.875 241.625 C-317.07589534 237.13082919 -321.83127775 232.21733286 -326.64453125 227.31640625 C-330.63846632 223.27866202 -334.71947471 219.4428305 -339.02246094 215.73730469 C-342.43096846 212.74286771 -345.65477829 209.56925218 -348.875 206.375 C-349.53757812 205.73304688 -350.20015625 205.09109375 -350.8828125 204.4296875 C-355.89820085 199.45507466 -358.27227367 195.80470594 -358.375 188.5625 C-358.25376512 183.54472288 -357.56195166 180.74004924 -354 177 C-348.9640605 172.9712484 -342.88528761 170.38506879 -337.12988281 167.54833984 C-330.70270767 164.37731634 -324.35192688 161.06869536 -318 157.75 C-304.59158227 150.75864084 -291.06903412 144.00139661 -277.5234375 137.28027344 C-269.64342479 133.3641232 -261.80227798 129.39423162 -254.03125 125.265625 C-240.87049966 118.2820516 -227.49649043 111.71588968 -214.15661621 105.08349609 C-194.9683298 95.5439113 -194.9683298 95.5439113 -175.95622253 85.65933228 C-166.00094833 80.38238862 -155.89850797 75.39592392 -145.8125 70.375 C-143.77920185 69.36086758 -141.74599824 68.34654559 -139.71289062 67.33203125 C-134.80967626 64.88584479 -129.90532015 62.44196079 -125 60 C-125 59.34 -125 58.68 -125 58 C-149.25851949 45.58041223 -173.88116545 35.21519378 -201 31 C-202.03141113 30.82412354 -203.06282227 30.64824707 -204.12548828 30.46704102 C-214.67178259 28.83240174 -225.08704405 28.66090851 -235.74121094 28.68432617 C-238.7314932 28.68748048 -241.72077701 28.66395813 -244.7109375 28.63867188 C-257.09005575 28.59724602 -268.85964294 29.58406601 -281 32 Z M-76.22729492 101.984375 C-77.13584229 102.89703125 -78.04438965 103.8096875 -78.98046875 104.75 C-79.47154617 105.24153564 -79.9626236 105.73307129 -80.46858215 106.23950195 C-81.51243095 107.28637885 -82.5538412 108.33569193 -83.59301758 109.38720703 C-85.1586552 110.97082396 -86.73186675 112.54656768 -88.30664062 114.12109375 C-93.14776483 118.97985007 -97.86310817 123.89647811 -102.32543945 129.109375 C-106.21642023 133.50239952 -110.49877743 137.53457748 -114.68359375 141.64453125 C-118.05844822 144.98276885 -121.34474627 148.33467539 -124.4375 151.9375 C-129.29455688 157.58278782 -134.66865329 162.71338231 -139.97265625 167.93359375 C-144.2347238 172.1546141 -148.30658559 176.43968391 -152.21289062 180.99023438 C-156.35056164 185.6434185 -160.89008232 189.92548362 -165.328125 194.2890625 C-168.82925165 197.75446336 -172.25350528 201.22408376 -175.4609375 204.96484375 C-180.34564736 210.65053341 -185.78393302 215.79399897 -191.1484375 221.02148438 C-195.62284605 225.43533166 -199.54361755 229.74488791 -203 235 C-197.38495663 240.12992014 -191.75871892 245.23936257 -186.01953125 250.23046875 C-181.10263444 254.53869748 -176.27360968 258.94686156 -171.421875 263.328125 C-166.99878599 267.31704577 -162.55384995 271.27567907 -158.0625 275.1875 C-154.82624923 278.03147795 -151.63591332 280.92612701 -148.4375 283.8125 C-146.30582519 285.72554149 -144.1598089 287.61887612 -142 289.5 C-138.16003825 292.84647269 -134.37158733 296.24768492 -130.59375 299.6640625 C-128.83119292 301.25142565 -127.06000589 302.82924768 -125.28125 304.3984375 C-124.4046875 305.17445313 -123.528125 305.95046875 -122.625 306.75 C-121.83351563 307.44609375 -121.04203125 308.1421875 -120.2265625 308.859375 C-116.01752427 312.90595913 -112.87264197 316.24958454 -112.75 322.1875 C-112.84197001 327.91723177 -114.13711436 332.14567889 -118.28344727 336.27294922 C-123.4008462 340.37551505 -129.4881287 342.99903457 -135.33984375 345.8828125 C-136.66654732 346.54369371 -137.99292131 347.2052369 -139.31898499 347.86740112 C-142.81315765 349.60970199 -146.31218268 351.34203761 -149.81219482 353.0725708 C-152.60074419 354.45343168 -155.38570101 355.84144142 -158.17046261 357.22992134 C-161.57973241 358.92944972 -164.99088253 360.62518817 -168.40234375 362.3203125 C-169.32656285 362.77987524 -169.32656285 362.77987524 -170.26945305 363.24872208 C-178.50078349 367.33712344 -186.77437504 371.32973012 -195.07250977 375.28076172 C-205.61268627 380.30476739 -216.07334603 385.47628211 -226.50759888 390.71621704 C-229.54758662 392.24278124 -232.58894906 393.76657797 -235.63061523 395.28979492 C-242.08823188 398.5242281 -248.54424746 401.7618481 -255 405 C-262.50026586 408.76207111 -270.00124295 412.5227107 -277.50393677 416.27993774 C-280.45261572 417.75744 -283.40004875 419.2374049 -286.34741211 420.7175293 C-297.84677467 426.48261281 -309.406932 432.10492993 -321.02552795 437.62580872 C-327.20420843 440.56477199 -333.32858418 443.6061579 -339.4375 446.6875 C-340.47841797 447.21021484 -341.51933594 447.73292969 -342.59179688 448.27148438 C-345.06218806 449.51237211 -347.53160515 450.7551474 -350 452 C-345.58795374 455.94094481 -340.73997732 458.31234562 -335.4375 460.8125 C-334.51146973 461.24973389 -333.58543945 461.68696777 -332.63134766 462.13745117 C-317.31629485 469.22322946 -301.38941872 474.09286128 -285 478 C-284.06027344 478.22429687 -283.12054688 478.44859375 -282.15234375 478.6796875 C-269.4210415 481.44274141 -256.64777066 482.31569096 -243.66333008 482.20581055 C-241.43494168 482.18747895 -239.20697203 482.18530266 -236.97851562 482.18554688 C-223.42992517 482.15468236 -210.1172786 481.59792712 -196.8125 478.8125 C-195.74588135 478.59327881 -194.6792627 478.37405762 -193.58032227 478.14819336 C-158.74154705 470.7556322 -125.80077424 456.49589192 -98 434 C-97.02933594 433.23171875 -96.05867187 432.4634375 -95.05859375 431.671875 C-79.025342 418.72741193 -64.87663156 403.81720989 -53 387 C-52.56961426 386.40896484 -52.13922852 385.81792969 -51.69580078 385.20898438 C-24.65603649 348.0332555 -10.77961608 301.54746197 -10.8125 255.8125 C-10.81330566 254.63139648 -10.81411133 253.45029297 -10.81494141 252.23339844 C-10.8792895 243.00007791 -11.6536189 234.11910604 -13 225 C-13.10957031 223.86175781 -13.21914063 222.72351563 -13.33203125 221.55078125 C-17.74868814 178.20930214 -39.81537888 135.57083217 -69.28515625 103.92578125 C-71 102 -71 102 -72 100 C-74.24829157 99.77826106 -74.24829157 99.77826106 -76.22729492 101.984375 Z " fill="#030403" transform="translate(495,0)"/>
<path d="M0 0 C1.48925781 1.45556641 1.48925781 1.45556641 3.203125 3.4765625 C3.82638672 4.21036133 4.44964844 4.94416016 5.09179688 5.70019531 C15.17568152 17.85349539 24.18617771 30.26661537 32 44 C32.59288818 45.02528809 32.59288818 45.02528809 33.19775391 46.07128906 C43.41843824 63.87506178 50.44233297 83.01781255 55 103 C55.44279297 104.89685547 55.44279297 104.89685547 55.89453125 106.83203125 C68.82183409 164.5909656 58.12421216 226.38280182 26.42675781 276.48681641 C23.12995841 281.46063001 19.62870161 286.26435031 16 291 C15.26910156 291.96164062 14.53820312 292.92328125 13.78515625 293.9140625 C0.86203235 310.44542495 -14.07287555 325.59235501 -31 338 C-31.84691406 338.63035156 -32.69382812 339.26070313 -33.56640625 339.91015625 C-45.58778903 348.60436883 -58.60344758 355.68315101 -72 362 C-73.10472656 362.52335937 -74.20945312 363.04671875 -75.34765625 363.5859375 C-89.49008394 369.95761529 -104.82256619 374.81958284 -120 378 C-121.24007812 378.26554687 -122.48015625 378.53109375 -123.7578125 378.8046875 C-135.12540185 381.09305614 -146.42713187 381.67193238 -158 382 C-157.67 381.34 -157.34 380.68 -157 380 C-155.30786133 379.44091797 -155.30786133 379.44091797 -153.08203125 378.9921875 C-151.83583008 378.72595581 -151.83583008 378.72595581 -150.56445312 378.4543457 C-149.65630859 378.26316162 -148.74816406 378.07197754 -147.8125 377.875 C-116.98343374 370.90993422 -87.70907501 356.68893153 -63 337 C-62.12601562 336.31808594 -61.25203125 335.63617188 -60.3515625 334.93359375 C-20.44643443 303.16162228 7.03141418 259.31576514 19.75 210 C19.93651123 209.29117676 20.12302246 208.58235352 20.31518555 207.85205078 C24.50005249 190.72582545 25.57307269 173.63357998 25.5 156.0625 C25.49923462 154.9943808 25.49846924 153.9262616 25.49768066 152.82577515 C25.38709931 109.91580364 13.31539746 69.4833617 -8.9375 32.75 C-9.37352539 32.02989746 -9.80955078 31.30979492 -10.25878906 30.56787109 C-12.80072954 26.51818225 -15.48515351 23.24447368 -19 20 C-20.98 21.65 -22.96 23.3 -25 25 C-23.43904931 21.26193389 -21.12570854 18.86757459 -18.28125 16.015625 C-17.34925781 15.08105469 -16.41726563 14.14648438 -15.45703125 13.18359375 C-14.7292749 12.46212158 -14.7292749 12.46212158 -13.98681641 11.72607422 C-12.49793661 10.24795152 -11.02008349 8.75940089 -9.54296875 7.26953125 C-8.61097656 6.34011719 -7.67898438 5.41070312 -6.71875 4.453125 C-5.86216797 3.59879883 -5.00558594 2.74447266 -4.12304688 1.86425781 C-2 0 -2 0 0 0 Z " fill="#5AB1D6" transform="translate(423,100)"/>
<path d="M0 0 C36.57350627 -1.96221494 75.54405915 11.01049134 107 29 C107 29.66 107 30.32 107 31 C101.81672803 34.6900118 96.47274696 38.34830489 90 39 C83.60663481 37.23613572 78.36375224 32.62879816 73.19140625 28.64160156 C53.77677488 14.09793163 23.92173087 3.68373989 0 1 C0 0.67 0 0.34 0 0 Z " fill="#59AFD4" transform="translate(263,29)"/>
<path d="M0 0 C0.671875 1.76953125 0.671875 1.76953125 1 4 C-3.02567769 11.01489358 -10.7617965 16.10698288 -17 21 C-18.16867607 21.93401149 -19.33661871 22.86894126 -20.50390625 23.8046875 C-38.01393816 37.79094086 -38.01393816 37.79094086 -43.5625 38.375 C-44.7690625 38.189375 -44.7690625 38.189375 -46 38 C-46.33 36.35 -46.66 34.7 -47 33 C-42.27965223 29.2703425 -37.51555697 25.62931276 -32.625 22.125 C-23.95764363 15.85113953 -15.86106254 8.99835524 -7.99609375 1.75 C-4.93012702 -0.93797083 -3.82318618 -1.14695585 0 0 Z " fill="#000000" transform="translate(435,432)"/>
<path d="M0 0 C0.495 2.475 0.495 2.475 1 5 C-1.43670021 6.83440417 -3.8743284 8.66755314 -6.3125 10.5 C-7.04436523 11.05099365 -7.77623047 11.6019873 -8.53027344 12.16967773 C-12.56182773 15.19776984 -16.62555813 18.16146086 -20.75 21.0625 C-25.50031332 24.46378174 -29.71740534 28.29525448 -33.85449219 32.40844727 C-36.77996514 35.23073337 -38.88177284 36.78064426 -43 37 C-43.66 36.67 -44.32 36.34 -45 36 C-45.30807938 32.95107645 -45.33229006 31.46590935 -43.5234375 28.9296875 C-34.45897888 20.26076889 -24.54386583 12.75354968 -14.375 5.4375 C-13.79532471 5.01992432 -13.21564941 4.60234863 -12.6184082 4.17211914 C-4.4821812 -1.600779 -4.4821812 -1.600779 0 0 Z " fill="#000000" transform="translate(126,40)"/>
<path d="M0 0 C0.495 1.98 0.495 1.98 1 4 C-4.79237756 7.86158504 -10.81612878 10.98671917 -17.06005859 14.03686523 C-20.85802393 15.89848212 -24.50990496 17.85907196 -28.125 20.0625 C-31.16118084 21.81078072 -31.86680697 22.00701016 -35.5625 21.8125 C-36.366875 21.544375 -37.17125 21.27625 -38 21 C-37.93261719 18.74926758 -37.93261719 18.74926758 -37 16 C-34.67330173 14.40560382 -32.59735956 13.21427089 -30.078125 12.01171875 C-29.03262482 11.48962578 -29.03262482 11.48962578 -27.96600342 10.95698547 C-26.49068084 10.22502228 -25.01097277 9.501842 -23.52734375 8.78686523 C-21.26235744 7.69346543 -19.0136845 6.57108335 -16.765625 5.44335938 C-15.32899562 4.73521018 -13.89152112 4.02877241 -12.453125 3.32421875 C-11.44659882 2.82277596 -11.44659882 2.82277596 -10.41973877 2.311203 C-6.80616203 0.58573125 -4.02066209 -0.41065572 0 0 Z " fill="#FEFDF4" transform="translate(283,129)"/>
<path d="M0 0 C2.125 0.5 2.125 0.5 3.125 1.5 C3.69819727 4.28410103 3.47831858 5.93801004 1.9609375 8.3515625 C-0.38327782 11.27281544 -2.09102122 13.19709911 -5.625 14.5625 C-7.875 14.5 -7.875 14.5 -9.875 12.5 C-10.4375 10.3125 -10.4375 10.3125 -9.875 7.5 C-7.17408519 3.84314343 -4.57683584 0.79597145 0 0 Z " fill="#000000" transform="translate(72.875,81.5)"/>
<path d="M0 0 C1.67542976 0.28604898 3.34385343 0.61781233 5 1 C5.54976577 4.22005667 5.53304544 6.24560518 3.6171875 8.95703125 C-0.98579789 13.84894862 -0.98579789 13.84894862 -4.9375 14.4375 C-5.9584375 14.2209375 -5.9584375 14.2209375 -7 14 C-7.7109375 11.765625 -7.7109375 11.765625 -8 9 C-6.6015625 6.796875 -6.6015625 6.796875 -4.625 4.75 C-3.97789062 4.06421875 -3.33078125 3.3784375 -2.6640625 2.671875 C-1.77682379 1.78047085 -0.88932387 0.88932387 0 0 Z " fill="#000000" transform="translate(448,412)"/>
<path d="M0 0 C0.33 1.32 0.66 2.64 1 4 C-3.58921384 7.15654048 -7.29370646 9.57202798 -13 10 C-13.33 8.35 -13.66 6.7 -14 5 C-12.70903219 4.18639005 -11.41720125 3.37414954 -10.125 2.5625 C-9.04605469 1.88380859 -9.04605469 1.88380859 -7.9453125 1.19140625 C-4.71592036 -0.78643432 -3.63014076 -1.08904223 0 0 Z " fill="#FEFCEA" transform="translate(307,117)"/>
</svg>
